<?xml version="1.0" encoding="utf-8"?>
<!-- Generator: Adobe Illustrator 18.0.0, SVG Export Plug-In . SVG Version: 6.00 Build 0)  -->
<!DOCTYPE svg PUBLIC "-//W3C//DTD SVG 1.1//EN" "http://www.w3.org/Graphics/SVG/1.1/DTD/svg11.dtd">
<svg version="1.1" id="Layer_1" xmlns="http://www.w3.org/2000/svg" xmlns:xlink="http://www.w3.org/1999/xlink" x="0px" y="0px"
	 viewBox="0 0 595 89" enable-background="new 0 0 595 89" xml:space="preserve">
<g>
	<g>
		<path fill="#F28E54" d="M33.1,5.7c4.8-2.8,10.3-3.9,15.7-5.5c-15.3,9.9-31.6,18.1-48.4,25C9.9,16.6,22,11.9,33.1,5.7z"/>
	</g>
	<g>
		<path fill="#F17D3F" d="M28.1,15.3c7.7-4.7,15.6-9.3,23.3-14c8.7,5.5,17.4,11.3,26.1,16.9c-0.9,8.7-1.8,17.3-2.8,25.9
			C64.4,44,54,43.5,43.8,43.4C38.6,34.1,33.3,24.7,28.1,15.3z"/>
	</g>
	<g>
		<path fill="#ED601A" d="M1.1,27.6c8.3-3.8,16.7-7.5,25-11.3c5.1,9.5,10.4,18.9,15.5,28.4c-5.5,8.9-11,17.9-16.5,26.7
			C16.9,67.3,8.8,63,0.7,58.9C0.8,48.5,0.6,38.1,1.1,27.6z"/>
	</g>
	<g>
		<path fill="#E16533" d="M78.3,71.7c-1.3-17.4-1.1-34.8,1.4-52.1c2.9,12.2,1.1,24.5,1.1,36.9C80.9,61.7,79.3,66.7,78.3,71.7z"/>
	</g>
	<g>
		<path fill="#4C4C4C" d="M207,21.7c1.4,0,2.8,0,4.2,0c0.1,11,0,21.9,0,32.9c0,4.6-1.1,9.6-4.9,12.5c-6.5,4.9-16.9,3.8-22-2.8
			c0.8-1.2,1.7-2.3,2.5-3.4c3.1,3.8,8.3,6.7,13.3,4.7c4.3-1.3,6.6-5.7,6.7-10C207.1,44.4,206.9,33.1,207,21.7z"/>
		<path fill="#4C4C4C" d="M236.9,21.7c2.1,0,4,0,6.1,0l15.7,38.1l16.2-38.1h6.4v47.7c-1.5,0-3,0-4.5,0c-0.1-13.8,0-27.6,0-41.4
			l-18.2,41.9l-17.5-41.8c-0.1,13.8,0,27.6-0.1,41.4c-1.4,0-2.8,0-4.2,0C236.9,53.5,236.9,37.6,236.9,21.7z"/>
		<path fill="#4C4C4C" d="M307.2,21.7c10,0,20.1,0,30.1,0c0,1.3,0,2.7,0,3.9c-8.7,0.1-17.3,0-25.9,0c-0.1,5.7,0,11.4,0,17.2
			c8.4,0,16.8,0,25.3,0c0,1.3,0,2.5,0,3.8c-8.4,0.1-16.8,0-25.2,0.1c0,6.2,0,12.3,0,18.5c8.7,0.1,17.3,0,25.9,0.1c0,1.3,0,2.7,0,4
			c-10,0-20.1,0-30.1,0C307.2,53.5,307.2,37.6,307.2,21.7z"/>
		<polygon fill="#4C4C4C" points="357.9,21.8 393,21.8 393,25.8 377.6,25.8 377.6,69.4 373.4,69.4 373.4,25.8 357.9,25.8 		"/>
		<g>
			<path fill="#4C4C4C" d="M415.4,21.7c7.8,0,17.9-0.3,23.3,0.9c9.8,2.8,12,17.4,4.4,23.7c-2.3,2.1-5.4,2.7-8.2,3.3
				c4.5,6.6,9.1,13.1,13.5,19.8c-1.7,0-3.4,0-5.2,0c-4.6-6.5-8.9-13.1-13.4-19.7c-3.4,0-6.7,0-10.1,0c-0.1,6.5,0,13.1-0.1,19.7
				c-1.4,0-2.8,0-4.2,0C415.4,53.5,415.4,37.6,415.4,21.7z M419.7,25.8c-0.1,6.7-0.1,13.4,0,20.1c5.9,0,14,0.5,18.1-1.2
				c7.6-3.3,7-16-1-18.3C433.5,25.6,425.3,25.8,419.7,25.8z"/>
		</g>
		<g>
			<path fill="#4C4C4C" d="M133.2,21.7c7.8,0,17.9-0.3,23.3,0.9c9.8,2.8,12,17.4,4.4,23.7c-2.3,2.1-5.4,2.7-8.2,3.3
				c4.5,6.6,9.1,13.1,13.6,19.8c-1.7,0-3.4,0-5.2,0c-4.6-6.5-8.9-13.1-13.4-19.7c-3.4,0-6.8,0-10.1,0c-0.1,6.5,0,13.1-0.1,19.7
				c-1.4,0-2.9,0-4.2,0C133.2,53.5,133.2,37.6,133.2,21.7z M137.5,25.8c-0.1,6.7-0.1,13.4,0,20.1c5.9,0,14,0.5,18.1-1.2
				c7.6-3.3,7-16-1-18.3C151.3,25.6,143.1,25.8,137.5,25.8z"/>
		</g>
		<path fill="#4C4C4C" d="M471.8,21.7c1.4,0,2.8,0,4.2,0c0.1,15.9,0,31.8,0,47.7c-1.4,0-2.8,0-4.2,0
			C471.8,53.5,471.8,37.6,471.8,21.7z"/>
		<path fill="#4C4C4C" d="M506,28.7c8.9-10.2,27.2-10.5,35.5,0.8c-1.2,0.8-2.3,1.5-3.5,2.3c-5.8-7.2-16.9-9-24.6-3.8
			c-10.6,6.7-12,23.5-3.3,32.4c7.2,8.1,21.3,7.7,27.9-1c1.2,0.7,2.4,1.5,3.6,2.3c-7.9,10.4-24.2,11.1-33.7,2.7
			C497.8,55.5,497.2,38.5,506,28.7z"/>
		<path fill="#4C4C4C" d="M567.4,24c8.2-5.2,20.2-3.5,26.7,3.7c-0.9,1.1-1.8,2.1-2.7,3.2c-5.1-5.4-13.7-8-20.5-4.3
			c-4.1,2.1-6,8.4-2.1,11.5c6.7,4.9,16.2,4,22.5,9.7c6.2,5.5,4.2,16.8-3.2,20.2c-9.1,4.1-21,2.3-27.6-5.5c0.9-1.1,1.9-2.1,2.8-3.2
			c5.5,6,14.8,8.9,22.4,5.3c5-2.2,6.6-9.7,2.2-13.5c-6.6-5.1-16.1-4.2-22.5-9.6C560.2,36.9,561.6,27.5,567.4,24z"/>
	</g>
	<g>
		<path fill="#C44B1E" d="M27.1,72.8c5.3-8.9,10.8-17.8,16.2-26.7c10.5,0.1,20.8,0.4,31.3,0.7c0.4,8.5,0.8,17,1.2,25.4
			C66.9,77.3,57.9,82.4,49,87.6C41.6,82.7,34.3,77.8,27.1,72.8z"/>
	</g>
	<g>
		<path fill="#AA4B1F" d="M0,61.3c16.1,7.9,31.7,16.9,46.1,27.5c-5.4-1.8-10.8-3.7-15.7-6.9C20,75.4,8.4,70.5,0,61.3z"/>
	</g>
</g>
</svg>
