<?xml version="1.0" encoding="utf-8"?>
<!-- Generator: Adobe Illustrator 17.0.0, SVG Export Plug-In . SVG Version: 6.00 Build 0)  -->
<!DOCTYPE svg PUBLIC "-//W3C//DTD SVG 1.1//EN" "http://www.w3.org/Graphics/SVG/1.1/DTD/svg11.dtd">
<svg version="1.1" id="Layer_1" xmlns="http://www.w3.org/2000/svg" xmlns:xlink="http://www.w3.org/1999/xlink" x="0px" y="0px"
	 width="193.444px" height="33.667px" viewBox="3.333 83.778 193.444 33.667" enable-background="new 3.333 83.778 193.444 33.667"
	 xml:space="preserve">
<g>
	<g>
		<path fill="#F37621" d="M57.667,102.889c2-0.556,3.889-2.111,3.889-5.111c0-3.222-2.333-5.444-5.667-5.444h-7v17.222H52v-6.444
			h2.444l4.111,6.444h3.667L57.667,102.889z M52,95.222h3.667c1.667,0,2.667,1,2.667,2.556s-1.111,2.556-2.667,2.556H52V95.222z"/>
		<path fill="#F37621" d="M73,92.333v11.778c0,1.778-1,2.889-2.667,2.889c-1,0-1.889-0.444-2.556-1.444L67.222,105l-1.667,2.444
			l0.222,0.333c1.222,1.333,2.667,2,4.667,2c3.444,0,5.667-2.222,5.667-5.667V92.333H73z"/>
		<polygon fill="#F37621" points="97.333,92.333 96.778,92.333 96,92.333 90.333,105.889 84.778,92.333 83.889,92.333 
			83.444,92.333 82.667,92.333 82.667,109.556 84.444,109.556 84.444,96.556 89.889,109.556 90.889,109.556 96.222,96.556 
			96.222,109.556 98.111,109.556 98.111,92.333 		"/>
		<polygon fill="#F37621" points="115.889,94.111 115.889,92.333 104.889,92.333 104.889,109.556 115.889,109.556 115.889,107.778 
			106.778,107.778 106.778,101.667 115.667,101.667 115.667,99.889 106.778,99.889 106.778,94.111 		"/>
		<polygon fill="#F37621" points="120.778,92.333 120.778,94.111 126.222,94.111 126.222,109.556 128.111,109.556 128.111,94.111 
			133.556,94.111 133.556,92.333 		"/>
		<path fill="#F37621" d="M146.222,102.556c2.556-0.444,4.333-2.333,4.333-5.111c0-3-2.222-5.111-5.333-5.111h-6.111v17.222H141v-7
			h3.111l4.889,7h2.333L146.222,102.556z M141,94.111h4.222c2,0,3.333,1.333,3.333,3.333s-1.333,3.333-3.333,3.333H141
			C141,100.778,141,94.111,141,94.111z"/>
		<rect x="156.778" y="92.333" fill="#F37621" width="1.889" height="17.222"/>
		<path fill="#F37621" d="M178.444,105.444l-0.333,0.444C177,107.222,175.333,108,173.556,108c-3.889,0-6.667-3-6.667-7.111
			c0-4.111,2.778-7.111,6.667-7.111c1.778,0,3.556,0.778,4.556,2.111l0.333,0.444l1.444-1.222l-0.333-0.444
			c-1.556-1.778-3.667-2.778-6-2.778c-4.889,0-8.556,3.778-8.556,8.889c0,5.111,3.667,8.889,8.556,8.889
			c2.444,0,4.444-0.889,6-2.778l0.333-0.444L178.444,105.444z"/>
		<path fill="#F37621" d="M190.889,99.667c-2.444-0.778-4-1.333-4-2.889c0-1.667,1.556-2.889,3.667-2.889
			c1.778,0,3.222,0.667,4.222,1.889l0.333,0.444l1.444-1.333l-0.333-0.444C194.889,92.778,193,92,190.556,92
			c-2.778,0-5.556,1.556-5.556,4.667c0,3.222,2.889,4,5.333,4.667c2.778,0.778,4.444,1.444,4.444,3.444
			c0,0.778-0.333,3.111-4.111,3.111c-2.444,0-3.889-1.333-4.556-2.222l-0.333-0.444l-1.444,1.222l0.333,0.444
			c1.333,1.778,3.556,2.778,6.111,2.778c4.444,0,6-2.667,6-4.889C196.667,101.333,193.444,100.444,190.889,99.667z"/>
	</g>
	<g>
		<g>
			<g>
				<path fill="#F37621" d="M34.556,106.889l0.111-0.111l0,0l0.111-12.667l0,0l0,0l0,0l0,0l-2.111-3
					c-0.333-0.444-1-1.111-1.444-1.333L22,84.444c-0.444-0.333-1.333-0.556-1.889-0.556l-3.556-0.111l0,0l0,0L5.222,90.111l0,0l0,0
					l-1.444,3.111c-0.222,0.444-0.444,1.333-0.444,1.889v10.778c0,0.556,0.222,1.444,0.444,2L5.333,111l0,0l11.111,6.444l0,0l0,0
					h0.333l0,0l0,0l3.444-0.222c0.556,0,1.444-0.333,1.889-0.556l9.222-5.333c0.444-0.333,1.111-0.889,1.444-1.333L34.556,106.889
					L34.556,106.889L34.556,106.889z M16.333,116l-9.556-5.444l1.222-9h10.333l5.111,9L16.333,116z M23.444,90.333l-5.111,9H8
					l-1.333-8.889l9.556-5.556L23.444,90.333z M25.111,109.333l-5.111-9l5.111-9l8.444,3.444v11L25.111,109.333z M34.444,94
					L34.444,94L34.444,94L34.444,94z M22.222,85.556L30,90.111c0.444,0.222,0.778,0.444,1,0.778l1.111,1.667l-7-2.889L18.889,85
					h1.778C21.111,85.111,21.778,85.333,22.222,85.556z M4.222,105l-0.111-9c0-0.444,0.111-1.111,0.333-1.556l0.889-1.556
					l1.111,7.556l-1,7.556l-0.889-1.444C4.444,106.222,4.222,105.444,4.222,105z M31.333,109.889
					c-0.222,0.333-0.778,0.889-1.222,1.111l-7.667,4.333c-0.444,0.222-1.111,0.556-1.556,0.556L19,115.778l5.889-4.667l7.111-3
					L31.333,109.889z"/>
			</g>
			<g>
				<path fill="#F37621" d="M30.778,96.222l-5.444-2.111c-0.111,0-0.111,0-0.111,0.111c0,0.111,0,0.111,0.111,0.111L29.889,97
					l0.778,7.333c0,0.111,0,0.111,0.111,0.111l0,0c0.111,0,0.111-0.111,0.111-0.111L30.778,96.222z"/>
			</g>
			<g>
				<path fill="#F37621" d="M10.667,97.667c0,0.111,0.111,0.111,0.111,0.111l0,0c0.111,0,0.111-0.111,0.111-0.111l-0.222-6
					L17,87.333c0.111,0,0.111-0.111,0-0.111c0-0.111-0.111-0.111-0.222,0l-7.111,4L10.667,97.667z"/>
			</g>
			<g>
				<path fill="#F37621" d="M20.778,109.778c0,0-0.111-0.111-0.222,0L16,112.667l-7-3.444c-0.111,0-0.111,0-0.111,0
					c0,0.111,0,0.111,0,0.111L16,113.444h0.111L20.778,109.778C20.778,109.889,20.778,109.778,20.778,109.778z"/>
			</g>
		</g>
	</g>
</g>
</svg>
